<svg width="124" height="116" viewBox="0 0 124 116" fill="none" xmlns="http://www.w3.org/2000/svg">
<path d="M66 0C98.0325 0 124 25.9675 124 58C124 90.0325 98.0325 116 66 116C48.7421 116 33.2447 108.462 22.6201 96.5H0L11.3008 77.3359C9.1629 71.2882 8 64.7799 8 58C8 25.9675 33.9675 0 66 0ZM65 9C62.2386 9 60 11.2386 60 14C60 16.0502 61.2343 17.8114 63 18.583V24.0537C43.4955 25.0927 28 41.2365 28 61C28 81.4345 44.5655 98 65 98C85.4345 98 102 81.4345 102 61C102 58.5206 101.753 56.0987 101.288 53.7559L113.5 32.5H88.5957C82.6703 27.5887 75.1888 24.4899 67 24.0537V18.583C68.7657 17.8114 70 16.0502 70 14C70 11.2386 67.7614 9 65 9ZM53.5 50C56.5376 50 59 52.4624 59 55.5V66.5C59 69.5376 56.5376 72 53.5 72C50.4624 72 48 69.5376 48 66.5V55.5C48 52.4624 50.4624 50 53.5 50ZM76.5 50C79.5376 50 82 52.4624 82 55.5V66.5C82 69.5376 79.5376 72 76.5 72C73.4624 72 71 69.5376 71 66.5V55.5C71 52.4624 73.4624 50 76.5 50Z" fill="#34D8B5"/>
</svg>
