<svg width="533" height="116" viewBox="0 0 533 116" fill="none" xmlns="http://www.w3.org/2000/svg">
<path d="M66 0C98.0325 0 124 25.9675 124 58C124 90.0325 98.0325 116 66 116C48.7421 116 33.2447 108.462 22.6201 96.5H0L11.3008 77.3359C9.1629 71.2882 8 64.7799 8 58C8 25.9675 33.9675 0 66 0ZM65 9C62.2386 9 60 11.2386 60 14C60 16.0502 61.2343 17.8114 63 18.583V24.0537C43.4955 25.0927 28 41.2365 28 61C28 81.4345 44.5655 98 65 98C85.4345 98 102 81.4345 102 61C102 58.5206 101.753 56.0987 101.288 53.7559L113.5 32.5H88.5957C82.6703 27.5887 75.1888 24.4899 67 24.0537V18.583C68.7657 17.8114 70 16.0502 70 14C70 11.2386 67.7614 9 65 9ZM53.5 50C56.5376 50 59 52.4624 59 55.5V66.5C59 69.5376 56.5376 72 53.5 72C50.4624 72 48 69.5376 48 66.5V55.5C48 52.4624 50.4624 50 53.5 50ZM76.5 50C79.5376 50 82 52.4624 82 55.5V66.5C82 69.5376 79.5376 72 76.5 72C73.4624 72 71 69.5376 71 66.5V55.5C71 52.4624 73.4624 50 76.5 50Z" fill="#34D8B5"/>
<path d="M164.564 86.078C157.891 86.078 152.603 84.23 148.702 80.534C144.801 76.7867 142.85 71.448 142.85 64.518V51.582C142.85 44.652 144.801 39.339 148.702 35.643C152.603 31.8957 157.891 30.022 164.564 30.022C171.186 30.022 176.294 31.8443 179.887 35.489C183.532 39.0823 185.354 44.036 185.354 50.35V50.812H175.344V50.042C175.344 46.8593 174.446 44.2413 172.649 42.188C170.904 40.1347 168.209 39.108 164.564 39.108C160.971 39.108 158.147 40.2117 156.094 42.419C154.041 44.6263 153.014 47.6293 153.014 51.428V64.672C153.014 68.4193 154.041 71.4223 156.094 73.681C158.147 75.8883 160.971 76.992 164.564 76.992C168.209 76.992 170.904 75.9653 172.649 73.912C174.446 71.8073 175.344 69.1893 175.344 66.058V64.672H185.354V65.75C185.354 72.064 183.532 77.0433 179.887 80.688C176.294 84.2813 171.186 86.078 164.564 86.078ZM207.496 86.078C203.697 86.078 200.283 85.308 197.255 83.768C194.226 82.228 191.839 79.995 190.094 77.069C188.348 74.143 187.476 70.6267 187.476 66.52V65.288C187.476 61.1813 188.348 57.665 190.094 54.739C191.839 51.813 194.226 49.58 197.255 48.04C200.283 46.5 203.697 45.73 207.496 45.73C211.294 45.73 214.708 46.5 217.737 48.04C220.765 49.58 223.152 51.813 224.898 54.739C226.643 57.665 227.516 61.1813 227.516 65.288V66.52C227.516 70.6267 226.643 74.143 224.898 77.069C223.152 79.995 220.765 82.228 217.737 83.768C214.708 85.308 211.294 86.078 207.496 86.078ZM207.496 77.454C210.473 77.454 212.937 76.5043 214.888 74.605C216.838 72.6543 217.814 69.8823 217.814 66.289V65.519C217.814 61.9257 216.838 59.1793 214.888 57.28C212.988 55.3293 210.524 54.354 207.496 54.354C204.518 54.354 202.054 55.3293 200.104 57.28C198.153 59.1793 197.178 61.9257 197.178 65.519V66.289C197.178 69.8823 198.153 72.6543 200.104 74.605C202.054 76.5043 204.518 77.454 207.496 77.454ZM247.251 86.078C244.223 86.078 241.374 85.3337 238.704 83.845C236.086 82.305 233.982 80.072 232.39 77.146C230.799 74.22 230.003 70.678 230.003 66.52V65.288C230.003 61.13 230.799 57.588 232.39 54.662C233.982 51.736 236.086 49.5287 238.704 48.04C241.322 46.5 244.171 45.73 247.251 45.73C249.561 45.73 251.486 46.0123 253.026 46.577C254.618 47.0903 255.901 47.7577 256.876 48.579C257.852 49.4003 258.596 50.273 259.109 51.197H260.495V31.1H270.197V85H260.649V80.38H259.263C258.391 81.8173 257.03 83.1263 255.182 84.307C253.386 85.4877 250.742 86.078 247.251 86.078ZM250.177 77.608C253.155 77.608 255.644 76.6583 257.646 74.759C259.648 72.8083 260.649 69.985 260.649 66.289V65.519C260.649 61.823 259.648 59.0253 257.646 57.126C255.696 55.1753 253.206 54.2 250.177 54.2C247.2 54.2 244.71 55.1753 242.708 57.126C240.706 59.0253 239.705 61.823 239.705 65.519V66.289C239.705 69.985 240.706 72.8083 242.708 74.759C244.71 76.6583 247.2 77.608 250.177 77.608ZM276.334 85V46.808H286.036V85H276.334ZM281.185 42.342C279.439 42.342 277.951 41.7773 276.719 40.648C275.538 39.5187 274.948 38.03 274.948 36.182C274.948 34.334 275.538 32.8453 276.719 31.716C277.951 30.5867 279.439 30.022 281.185 30.022C282.981 30.022 284.47 30.5867 285.651 31.716C286.831 32.8453 287.422 34.334 287.422 36.182C287.422 38.03 286.831 39.5187 285.651 40.648C284.47 41.7773 282.981 42.342 281.185 42.342ZM292.167 85V46.808H301.715V51.813H303.101C303.717 50.4783 304.872 49.2207 306.566 48.04C308.26 46.808 310.827 46.192 314.266 46.192C317.243 46.192 319.836 46.885 322.043 48.271C324.302 49.6057 326.047 51.4793 327.279 53.892C328.511 56.2533 329.127 59.0253 329.127 62.208V85H319.425V62.978C319.425 60.1033 318.706 57.9473 317.269 56.51C315.883 55.0727 313.881 54.354 311.263 54.354C308.286 54.354 305.976 55.355 304.333 57.357C302.69 59.3077 301.869 62.054 301.869 65.596V85H292.167ZM333.147 66.058V64.826C333.147 60.822 333.943 57.4083 335.534 54.585C337.125 51.7103 339.23 49.5287 341.848 48.04C344.517 46.5 347.418 45.73 350.549 45.73C354.04 45.73 356.683 46.346 358.48 47.578C360.277 48.81 361.586 50.0933 362.407 51.428H363.793V46.808H373.341V91.776C373.341 94.394 372.571 96.473 371.031 98.013C369.491 99.6043 367.438 100.4 364.871 100.4H339.307V91.93H361.483C362.92 91.93 363.639 91.16 363.639 89.62V79.687H362.253C361.74 80.5083 361.021 81.3553 360.097 82.228C359.173 83.0493 357.941 83.7423 356.401 84.307C354.861 84.8717 352.91 85.154 350.549 85.154C347.418 85.154 344.517 84.4097 341.848 82.921C339.23 81.381 337.125 79.1993 335.534 76.376C333.943 73.5013 333.147 70.062 333.147 66.058ZM353.321 76.684C356.298 76.684 358.788 75.7343 360.79 73.835C362.792 71.9357 363.793 69.2663 363.793 65.827V65.057C363.793 61.5663 362.792 58.897 360.79 57.049C358.839 55.1497 356.35 54.2 353.321 54.2C350.344 54.2 347.854 55.1497 345.852 57.049C343.85 58.897 342.849 61.5663 342.849 65.057V65.827C342.849 69.2663 343.85 71.9357 345.852 73.835C347.854 75.7343 350.344 76.684 353.321 76.684ZM377.63 85V76.068H384.714V40.032H377.63V31.1H405.35C408.635 31.1 411.484 31.6647 413.897 32.794C416.361 33.872 418.26 35.4377 419.595 37.491C420.981 39.493 421.674 41.9057 421.674 44.729V45.499C421.674 47.963 421.212 49.9907 420.288 51.582C419.364 53.122 418.26 54.3283 416.977 55.201C415.745 56.0223 414.564 56.6127 413.435 56.972V58.358C414.564 58.666 415.796 59.2563 417.131 60.129C418.465 60.9503 419.595 62.1567 420.519 63.748C421.494 65.3393 421.982 67.4183 421.982 69.985V70.755C421.982 73.7323 421.289 76.299 419.903 78.455C418.517 80.5597 416.592 82.1767 414.128 83.306C411.715 84.4353 408.892 85 405.658 85H377.63ZM394.878 75.76H404.426C406.633 75.76 408.404 75.221 409.739 74.143C411.125 73.065 411.818 71.525 411.818 69.523V68.753C411.818 66.751 411.15 65.211 409.816 64.133C408.481 63.055 406.684 62.516 404.426 62.516H394.878V75.76ZM394.878 53.276H404.272C406.376 53.276 408.096 52.737 409.431 51.659C410.817 50.581 411.51 49.0923 411.51 47.193V46.423C411.51 44.4723 410.842 42.9837 409.508 41.957C408.173 40.879 406.428 40.34 404.272 40.34H394.878V53.276ZM444.162 86.078C440.364 86.078 436.95 85.308 433.921 83.768C430.893 82.228 428.506 79.995 426.76 77.069C425.015 74.143 424.142 70.6267 424.142 66.52V65.288C424.142 61.1813 425.015 57.665 426.76 54.739C428.506 51.813 430.893 49.58 433.921 48.04C436.95 46.5 440.364 45.73 444.162 45.73C447.961 45.73 451.375 46.5 454.403 48.04C457.432 49.58 459.819 51.813 461.564 54.739C463.31 57.665 464.182 61.1813 464.182 65.288V66.52C464.182 70.6267 463.31 74.143 461.564 77.069C459.819 79.995 457.432 82.228 454.403 83.768C451.375 85.308 447.961 86.078 444.162 86.078ZM444.162 77.454C447.14 77.454 449.604 76.5043 451.554 74.605C453.505 72.6543 454.48 69.8823 454.48 66.289V65.519C454.48 61.9257 453.505 59.1793 451.554 57.28C449.655 55.3293 447.191 54.354 444.162 54.354C441.185 54.354 438.721 55.3293 436.77 57.28C434.82 59.1793 433.844 61.9257 433.844 65.519V66.289C433.844 69.8823 434.82 72.6543 436.77 74.605C438.721 76.5043 441.185 77.454 444.162 77.454ZM481.87 85C479.354 85 477.301 84.23 475.71 82.69C474.17 81.0987 473.4 78.994 473.4 76.376V54.816H463.852V46.808H473.4V34.95H483.102V46.808H493.574V54.816H483.102V74.682C483.102 76.222 483.82 76.992 485.258 76.992H492.65V85H481.87ZM513.598 86.078C508.618 86.078 504.537 85 501.355 82.844C498.172 80.688 496.247 77.608 495.58 73.604L504.512 71.294C504.871 73.0907 505.461 74.5023 506.283 75.529C507.155 76.5557 508.208 77.3 509.44 77.762C510.723 78.1727 512.109 78.378 513.598 78.378C515.856 78.378 517.525 77.993 518.603 77.223C519.681 76.4017 520.22 75.4007 520.22 74.22C520.22 73.0393 519.706 72.141 518.68 71.525C517.653 70.8577 516.01 70.3187 513.752 69.908L511.596 69.523C508.926 69.0097 506.488 68.3167 504.281 67.444C502.073 66.52 500.302 65.2623 498.968 63.671C497.633 62.0797 496.966 60.0263 496.966 57.511C496.966 53.7123 498.352 50.812 501.124 48.81C503.896 46.7567 507.54 45.73 512.058 45.73C516.318 45.73 519.86 46.6797 522.684 48.579C525.507 50.4783 527.355 52.968 528.228 56.048L519.219 58.82C518.808 56.8693 517.961 55.4833 516.678 54.662C515.446 53.8407 513.906 53.43 512.058 53.43C510.21 53.43 508.798 53.7637 507.823 54.431C506.847 55.047 506.36 55.9197 506.36 57.049C506.36 58.281 506.873 59.205 507.9 59.821C508.926 60.3857 510.312 60.822 512.058 61.13L514.214 61.515C517.088 62.0283 519.681 62.7213 521.991 63.594C524.352 64.4153 526.2 65.6217 527.535 67.213C528.921 68.753 529.614 70.8577 529.614 73.527C529.614 77.531 528.151 80.6367 525.225 82.844C522.35 85 518.474 86.078 513.598 86.078Z" fill="#171717"/>
</svg>
